<svg width="192" height="192" viewBox="0 0 192 192" fill="none" xmlns="http://www.w3.org/2000/svg">
<g clip-path="url(#clip0_1_4)">
<mask id="mask0_1_4" style="mask-type:luminance" maskUnits="userSpaceOnUse" x="0" y="0" width="192" height="192">
<path d="M192 0H0V192H192V0Z" fill="white"/>
</mask>
<g mask="url(#mask0_1_4)">
<path fill-rule="evenodd" clip-rule="evenodd" d="M14.2945 14.2945C0.928589 27.6605 0.928589 49.1726 0.928589 92.1971V99.8028C0.928589 142.827 0.928589 164.34 14.2945 177.705C27.6605 191.071 49.1726 191.071 92.1971 191.071H99.8028C142.827 191.071 164.34 191.071 177.705 177.705C191.071 164.34 191.071 142.827 191.071 99.8028V92.1971C191.071 49.1726 191.071 27.6605 177.705 14.2945C164.34 0.928589 142.827 0.928589 99.8028 0.928589H92.1971C49.1726 0.928589 27.6605 0.928589 14.2945 14.2945ZM32.9071 58.8357C33.9352 108.232 58.6101 137.918 101.871 137.918H104.323V109.657C120.219 111.24 132.239 122.877 137.064 137.918H159.525C153.356 115.436 137.143 103.008 127.02 98.2579C137.143 92.3998 151.378 78.1512 154.779 58.8357H134.374C129.945 74.5095 116.818 88.7586 104.323 90.1043V58.8357H83.9177V113.615C71.2637 110.449 55.2887 95.0916 54.5769 58.8357H32.9071Z" fill="white"/>
</g>
</g>
<defs>
<clipPath id="clip0_1_4">
<rect width="192" height="192" fill="white"/>
</clipPath>
</defs>
</svg>
