<svg width="192" height="192" viewBox="0 0 192 192" fill="none" xmlns="http://www.w3.org/2000/svg">
<rect width="192" height="192" fill="#1E1E1E"/>
<g clip-path="url(#clip0_0_1)">
<path fill-rule="evenodd" clip-rule="evenodd" d="M14.2945 14.2945C0.928573 27.6605 0.928574 49.1726 0.928574 92.1971V99.8028C0.928574 142.827 0.928573 164.34 14.2945 177.705C27.6605 191.071 49.1726 191.071 92.1971 191.071H99.8028C142.827 191.071 164.34 191.071 177.705 177.705C191.071 164.34 191.071 142.827 191.071 99.8028V92.1971C191.071 49.1726 191.071 27.6605 177.705 14.2945C164.34 0.928573 142.827 0.928574 99.8028 0.928574H92.1971C49.1726 0.928574 27.6605 0.928573 14.2945 14.2945ZM32.9071 58.8357C33.9352 108.232 58.6101 137.918 101.871 137.918H104.323V109.657C120.219 111.24 132.239 122.877 137.064 137.918H159.525C153.356 115.436 137.143 103.008 127.02 98.2579C137.143 92.3998 151.378 78.1512 154.779 58.8357H134.374C129.945 74.5095 116.818 88.7586 104.323 90.1043V58.8357H83.9177V113.615C71.2637 110.449 55.2887 95.0916 54.5769 58.8357H32.9071Z" fill="white"/>
</g>
<defs>
<clipPath id="clip0_0_1">
<rect width="192" height="192" fill="white"/>
</clipPath>
</defs>
</svg>
